<?xml version="1.0" standalone="no"?><svg xmlns:xlink="http://www.w3.org/1999/xlink" xmlns="http://www.w3.org/2000/svg" viewBox="0 0 1400 875" preserveAspectRatio="xMaxYMax slice"><g transform="scale(1.25)"><rect x="0" y="0" width="1120" height="700" fill="#5C62C5"/><path d="M 0 0 A 70 70 0 0 1  70 70 L 0 0 A 70 70 0 0 0 70 70" fill="#9a9ed9"/><path d="M 140 70 A 70 70 0 0 1  210 0 L 140 70 A 70 70 0 0 0 210 0" fill="#7f84d0"/><rect x="350" y="0" width="70" height="70" fill="#5C62C5"/><path d="M 385 35 A 35 35 0 0 1  420 0 L 385 35 A 35 35 0 0 0 420 0" fill="#7d81cf"/><rect x="700" y="0" width="70" height="70" fill="#5C62C5"/><path d="M 700 35 A 35 35 0 0 1  735 70 L 700 35 A 35 35 0 0 0 735 70" fill="#c7c9e7"/><path d="M 735 35 A 35 35 0 0 1  770 70 L 735 35 A 35 35 0 0 0 770 70" fill="#5f71c3"/><rect x="770" y="0" width="70" height="70" fill="#5C62C5"/><path d="M 770 35 A 35 35 0 0 1  805 70 L 770 35 A 35 35 0 0 0 805 70" fill="#6d72ca"/><rect x="840" y="0" width="70" height="70" fill="#5C62C5"/><path d="M 840 70 A 35 35 0 0 1  875 35 L 840 70 A 35 35 0 0 0 875 35" fill="#a3a7dc"/><path d="M 910 70 A 70 70 0 0 1  980 0 L 910 70 A 70 70 0 0 0 980 0" fill="#8287d1"/><path d="M 490 70 A 70 70 0 0 1  560 140 L 490 70 A 70 70 0 0 0 560 140" fill="#5f72c3"/><path d="M 630 70 A 70 70 0 0 1  700 140 L 630 70 A 70 70 0 0 0 700 140" fill="#9ea1da"/><path d="M 700 140 A 70 70 0 0 1  770 70 L 700 140 A 70 70 0 0 0 770 70" fill="#a8abdd"/><path d="M 980 70 A 70 70 0 0 1  1050 140 L 980 70 A 70 70 0 0 0 1050 140" fill="#6066c6"/><rect x="1050" y="70" width="70" height="70" fill="#5C62C5"/><path d="M 1050 140 A 35 35 0 0 1  1085 105 L 1050 140 A 35 35 0 0 0 1085 105" fill="#bec0e4"/><path d="M 0 140 A 70 70 0 0 1  70 210 L 0 140 A 70 70 0 0 0 70 210" fill="#5e69c4"/><path d="M 70 210 A 70 70 0 0 1  140 140 L 70 210 A 70 70 0 0 0 140 140" fill="#c1c3e5"/><rect x="140" y="140" width="70" height="70" fill="#5C62C5"/><path d="M 140 210 A 35 35 0 0 1  175 175 L 140 210 A 35 35 0 0 0 175 175" fill="#5c62c5"/><path d="M 560 210 A 70 70 0 0 1  630 140 L 560 210 A 70 70 0 0 0 630 140" fill="#5f73c3"/><path d="M 630 210 A 70 70 0 0 1  700 140 L 630 210 A 70 70 0 0 0 700 140" fill="#e2e2f0"/><rect x="700" y="140" width="70" height="70" fill="#5C62C5"/><path d="M 735 140 A 35 35 0 0 1  770 175 L 735 140 A 35 35 0 0 0 770 175" fill="#e1e2ef"/><path d="M 700 210 A 35 35 0 0 1  735 175 L 700 210 A 35 35 0 0 0 735 175" fill="#5d65c5"/><path d="M 840 140 A 70 70 0 0 1  910 210 L 840 140 A 70 70 0 0 0 910 210" fill="#f4f4f5"/><rect x="980" y="140" width="70" height="70" fill="#5C62C5"/><path d="M 1015 175 A 35 35 0 0 1  1050 140 L 1015 175 A 35 35 0 0 0 1050 140" fill="#5e6ac4"/><rect x="70" y="210" width="70" height="70" fill="#5C62C5"/><path d="M 105 210 A 35 35 0 0 1  140 245 L 105 210 A 35 35 0 0 0 140 245" fill="#6073c3"/><path d="M 140 280 A 70 70 0 0 1  210 210 L 140 280 A 70 70 0 0 0 210 210" fill="#6b71ca"/><rect x="210" y="210" width="70" height="70" fill="#5C62C5"/><path d="M 210 245 A 35 35 0 0 1  245 210 L 210 245 A 35 35 0 0 0 245 210" fill="#dfe0ef"/><rect x="350" y="210" width="70" height="70" fill="#5C62C5"/><path d="M 385 280 A 35 35 0 0 1  420 245 L 385 280 A 35 35 0 0 0 420 245" fill="#6075c3"/><rect x="560" y="210" width="70" height="70" fill="#5C62C5"/><path d="M 560 280 A 35 35 0 0 1  595 245 L 560 280 A 35 35 0 0 0 595 245" fill="#5d65c5"/><path d="M 630 280 A 70 70 0 0 1  700 210 L 630 280 A 70 70 0 0 0 700 210" fill="#7278cc"/><rect x="0" y="280" width="70" height="70" fill="#5C62C5"/><path d="M 35 315 A 35 35 0 0 1  70 350 L 35 315 A 35 35 0 0 0 70 350" fill="#b4b7e1"/><rect x="140" y="280" width="70" height="70" fill="#5C62C5"/><rect x="350" y="280" width="70" height="70" fill="#5C62C5"/><path d="M 385 350 A 35 35 0 0 1  420 315 L 385 350 A 35 35 0 0 0 420 315" fill="#5d67c4"/><rect x="630" y="280" width="70" height="70" fill="#5C62C5"/><path d="M 665 315 A 35 35 0 0 1  700 280 L 665 315 A 35 35 0 0 0 700 280" fill="#787dce"/><path d="M 700 280 A 70 70 0 0 1  770 350 L 700 280 A 70 70 0 0 0 770 350" fill="#6073c3"/><path d="M 980 280 A 70 70 0 0 1  1050 350 L 980 280 A 70 70 0 0 0 1050 350" fill="#5e6cc4"/><path d="M 350 420 A 70 70 0 0 1  420 350 L 350 420 A 70 70 0 0 0 420 350" fill="#cacce8"/><rect x="420" y="350" width="70" height="70" fill="#5C62C5"/><path d="M 490 420 A 70 70 0 0 1  560 350 L 490 420 A 70 70 0 0 0 560 350" fill="#6073c3"/><path d="M 770 350 A 70 70 0 0 1  840 420 L 770 350 A 70 70 0 0 0 840 420" fill="#6075c3"/><rect x="840" y="350" width="70" height="70" fill="#5C62C5"/><path d="M 840 350 A 35 35 0 0 1  875 385 L 840 350 A 35 35 0 0 0 875 385" fill="#afb2e0"/><path d="M 875 350 A 35 35 0 0 1  910 385 L 875 350 A 35 35 0 0 0 910 385" fill="#5d68c4"/><rect x="0" y="420" width="70" height="70" fill="#5C62C5"/><path d="M 140 490 A 70 70 0 0 1  210 420 L 140 490 A 70 70 0 0 0 210 420" fill="#5c63c5"/><rect x="280" y="420" width="70" height="70" fill="#5C62C5"/><path d="M 280 420 A 35 35 0 0 1  315 455 L 280 420 A 35 35 0 0 0 315 455" fill="#686ec9"/><path d="M 280 490 A 35 35 0 0 1  315 455 L 280 490 A 35 35 0 0 0 315 455" fill="#686dc9"/><path d="M 315 455 A 35 35 0 0 1  350 490 L 315 455 A 35 35 0 0 0 350 490" fill="#5e6ec4"/><rect x="490" y="420" width="70" height="70" fill="#5C62C5"/><path d="M 490 420 A 35 35 0 0 1  525 455 L 490 420 A 35 35 0 0 0 525 455" fill="#5e6ec4"/><path d="M 490 455 A 35 35 0 0 1  525 490 L 490 455 A 35 35 0 0 0 525 490" fill="#adb0df"/><path d="M 630 420 A 70 70 0 0 1  700 490 L 630 420 A 70 70 0 0 0 700 490" fill="#d6d7ec"/><rect x="770" y="420" width="70" height="70" fill="#5C62C5"/><path d="M 770 455 A 35 35 0 0 1  805 420 L 770 455 A 35 35 0 0 0 805 420" fill="#5e6ac4"/><rect x="1050" y="420" width="70" height="70" fill="#5C62C5"/><path d="M 1085 455 A 35 35 0 0 1  1120 420 L 1085 455 A 35 35 0 0 0 1120 420" fill="#5c64c5"/><path d="M 1050 490 A 35 35 0 0 1  1085 455 L 1050 490 A 35 35 0 0 0 1085 455" fill="#5d65c5"/><path d="M 140 490 A 70 70 0 0 1  210 560 L 140 490 A 70 70 0 0 0 210 560" fill="#5e69c4"/><path d="M 350 560 A 70 70 0 0 1  420 490 L 350 560 A 70 70 0 0 0 420 490" fill="#5d66c5"/><path d="M 770 490 A 70 70 0 0 1  840 560 L 770 490 A 70 70 0 0 0 840 560" fill="#ebebf2"/><path d="M 0 560 A 70 70 0 0 1  70 630 L 0 560 A 70 70 0 0 0 70 630" fill="#989cd8"/><path d="M 490 560 A 70 70 0 0 1  560 630 L 490 560 A 70 70 0 0 0 560 630" fill="#999dd9"/><rect x="630" y="560" width="70" height="70" fill="#5C62C5"/><path d="M 665 595 A 35 35 0 0 1  700 560 L 665 595 A 35 35 0 0 0 700 560" fill="#dcddee"/><path d="M 665 630 A 35 35 0 0 1  700 595 L 665 630 A 35 35 0 0 0 700 595" fill="#d2d3eb"/><rect x="770" y="560" width="70" height="70" fill="#5C62C5"/><path d="M 805 560 A 35 35 0 0 1  840 595 L 805 560 A 35 35 0 0 0 840 595" fill="#5d63c5"/><path d="M 770 595 A 35 35 0 0 1  805 630 L 770 595 A 35 35 0 0 0 805 630" fill="#5f71c3"/><rect x="1050" y="560" width="70" height="70" fill="#5C62C5"/><path d="M 1050 595 A 35 35 0 0 1  1085 560 L 1050 595 A 35 35 0 0 0 1085 560" fill="#8387d1"/><path d="M 1085 560 A 35 35 0 0 1  1120 595 L 1085 560 A 35 35 0 0 0 1120 595" fill="#5e6dc4"/><path d="M 1050 630 A 35 35 0 0 1  1085 595 L 1050 630 A 35 35 0 0 0 1085 595" fill="#5e69c4"/><path d="M 350 700 A 70 70 0 0 1  420 630 L 350 700 A 70 70 0 0 0 420 630" fill="#5e64c6"/><rect x="700" y="630" width="70" height="70" fill="#5C62C5"/><path d="M 700 665 A 35 35 0 0 1  735 630 L 700 665 A 35 35 0 0 0 735 630" fill="#e9e9f2"/><path d="M 700 700 A 35 35 0 0 1  735 665 L 700 700 A 35 35 0 0 0 735 665" fill="#ced0e9"/><rect x="770" y="630" width="70" height="70" fill="#5C62C5"/><rect x="840" y="630" width="70" height="70" fill="#5C62C5"/><path d="M 875 630 A 35 35 0 0 1  910 665 L 875 630 A 35 35 0 0 0 910 665" fill="#c0c2e5"/><path d="M 875 700 A 35 35 0 0 1  910 665 L 875 700 A 35 35 0 0 0 910 665" fill="#5e6ac4"/><path d="M 910 630 A 70 70 0 0 1  980 700 L 910 630 A 70 70 0 0 0 980 700" fill="#6074c3"/><path d="M 980 630 A 70 70 0 0 1  1050 700 L 980 630 A 70 70 0 0 0 1050 700" fill="#5c63c5"/></g></svg>